<?xml version="1.0" standalone="no"?>
<!DOCTYPE svg PUBLIC "-//W3C//DTD SVG 20010904//EN"
 "http://www.w3.org/TR/2001/REC-SVG-20010904/DTD/svg10.dtd">
<svg version="1.0" xmlns="http://www.w3.org/2000/svg"
 width="700.000000pt" height="700.000000pt" viewBox="0 0 700.000000 700.000000"
 preserveAspectRatio="xMidYMid meet">
<metadata>
Created by potrace 1.11, written by Peter Selinger 2001-2013
</metadata>
<g transform="translate(0.000000,700.000000) scale(0.100000,-0.100000)"
fill="#000000" stroke="none">
<path d="M3353 6710 c-189 -11 -547 -61 -566 -79 -8 -8 11 -121 23 -134 4 -4
56 1 117 12 394 71 863 73 1203 5 411 -82 756 -223 1087 -443 751 -500 1234
-1320 1338 -2271 10 -88 16 -235 16 -372 l0 -226 71 -4 c38 -2 72 -1 74 1 2 2
4 105 4 228 0 586 -116 1080 -373 1586 -299 590 -775 1069 -1356 1364 -193 97
-445 192 -646 242 -305 76 -678 110 -992 91z"/>
<path d="M3370 6384 c-184 -12 -504 -55 -517 -68 -6 -6 18 -129 26 -138 4 -4
43 -1 86 7 235 45 627 62 855 36 497 -57 935 -228 1301 -507 l57 -43 46 59 46
59 -57 44 c-373 286 -845 474 -1334 531 -129 15 -413 26 -509 20z"/>
<path d="M1797 6237 c-677 -414 -1200 -1093 -1426 -1856 -41 -138 -81 -347
-84 -440 l-2 -76 71 -3 71 -3 6 77 c8 94 47 289 82 408 209 721 749 1412 1395
1786 41 24 77 45 79 47 5 3 -62 133 -69 132 -3 0 -58 -32 -123 -72z"/>
<path d="M3337 6069 c-506 -30 -987 -208 -1404 -521 -112 -83 -372 -338 -458
-447 -139 -176 -255 -367 -339 -558 -345 -777 -289 -1670 150 -2394 402 -666
1081 -1110 1869 -1225 166 -25 525 -25 685 0 421 63 763 193 1097 417 152 101
243 178 398 333 284 285 489 617 613 991 96 289 132 513 132 825 1 434 -93
821 -289 1195 -126 240 -267 431 -466 630 -217 217 -424 366 -700 500 -394
193 -841 281 -1288 254z m-100 -693 c147 -78 269 -222 327 -385 27 -77 30 -99
30 -206 1 -99 -3 -133 -23 -195 -29 -93 -67 -169 -120 -240 -23 -30 -41 -57
-41 -60 0 -4 15 -13 33 -22 17 -8 53 -31 79 -51 l47 -36 203 55 c624 168 818
194 1013 133 76 -23 165 -93 243 -191 170 -214 197 -466 77 -726 -20 -42 -53
-99 -75 -128 l-40 -52 51 -37 c212 -152 320 -356 321 -605 0 -246 -110 -498
-302 -691 -175 -175 -386 -261 -880 -357 -416 -82 -710 -135 -714 -131 -2 2
-20 303 -40 669 -20 366 -39 684 -42 708 l-5 42 -25 -19 c-32 -25 -155 -76
-259 -108 -128 -39 -336 -87 -704 -163 -189 -39 -379 -79 -422 -89 l-78 -18
-5 41 c-7 54 -176 2561 -176 2606 l0 36 333 82 c600 148 791 182 992 179 130
-2 130 -2 202 -41z"/>
<path d="M2857 4884 c-75 -11 -559 -121 -562 -127 -1 -1 3 -111 8 -244 7 -177
13 -243 22 -243 10 0 309 69 557 129 91 22 134 47 182 103 74 87 88 228 30
310 -54 78 -105 93 -237 72z"/>
<path d="M2850 3864 c-141 -32 -470 -120 -477 -128 -11 -11 20 -618 32 -622
15 -6 359 66 535 112 135 35 169 52 226 112 78 83 116 212 95 323 -7 35 -21
80 -31 99 -21 42 -89 106 -126 120 -42 16 -143 10 -254 -16z"/>
<path d="M4405 3845 c-112 -21 -509 -115 -517 -123 -5 -5 10 -481 16 -489 1
-1 143 32 316 73 338 81 373 94 434 165 97 114 85 290 -26 362 -48 31 -103 34
-223 12z"/>
<path d="M4470 2851 c-117 -25 -514 -131 -521 -139 -6 -6 19 -622 25 -629 2
-2 33 4 336 71 276 62 334 79 384 117 98 76 145 173 146 301 0 132 -48 225
-142 272 -62 31 -107 32 -228 7z"/>
<path d="M1109 5148 c-202 -254 -373 -638 -449 -1012 -71 -347 -79 -776 -20
-1155 10 -68 20 -124 22 -126 4 -3 137 21 143 26 2 2 -1 27 -6 54 -41 219 -59
591 -40 819 42 498 194 931 447 1273 30 40 54 76 53 80 0 5 -24 27 -54 51
l-54 42 -42 -52z"/>
<path d="M6250 4116 c-64 -14 -62 -3 -36 -171 52 -345 37 -716 -44 -1055 -175
-729 -623 -1361 -1240 -1749 -47 -30 -86 -55 -88 -56 -5 -4 58 -114 69 -121
11 -6 101 46 214 125 290 202 561 480 762 781 423 634 589 1384 471 2128 -23
147 -15 138 -108 118z"/>
<path d="M405 2786 l-50 -12 2 -39 c2 -22 21 -103 44 -179 241 -825 802 -1507
1559 -1900 763 -396 1613 -476 2441 -231 608 180 1211 581 1655 1100 54 64 58
50 -31 119 l-37 30 -61 -70 c-509 -577 -1135 -955 -1829 -1103 -458 -98 -937
-88 -1398 29 -529 134 -1023 414 -1404 796 -367 367 -650 857 -772 1337 -39
157 -27 145 -119 123z"/>
<path d="M1033 2069 c-29 -17 -53 -37 -53 -44 0 -17 148 -238 224 -335 96
-123 360 -378 491 -476 502 -375 1070 -569 1755 -600 186 -8 632 22 669 45 10
6 -2 121 -14 141 -2 4 -46 1 -97 -6 -268 -37 -624 -37 -890 0 -823 116 -1520
544 -1939 1190 -41 63 -78 115 -84 115 -5 0 -34 -13 -62 -30z"/>
</g>
</svg>
