<?xml version="1.0" encoding="UTF-8" standalone="no"?>
<!DOCTYPE svg PUBLIC "-//W3C//DTD SVG 1.1//EN" "http://www.w3.org/Graphics/SVG/1.1/DTD/svg11.dtd">
<svg width="100%" height="100%" viewBox="0 0 200 200" version="1.1" xmlns="http://www.w3.org/2000/svg" xmlns:xlink="http://www.w3.org/1999/xlink" xml:space="preserve" xmlns:serif="http://www.serif.com/" style="fill-rule:evenodd;clip-rule:evenodd;stroke-linejoin:round;stroke-miterlimit:2;">
    <g transform="matrix(3.24406,0,0,3.24406,-944.215,-451.087)">
        <path d="M311.592,192.423C332.53,192.423 343.981,175.075 343.981,160.033C343.981,159.54 343.972,159.049 343.948,158.562C346.172,156.955 348.104,154.95 349.628,152.667C347.589,153.572 345.394,154.183 343.091,154.459C345.44,153.05 347.245,150.819 348.096,148.162C345.896,149.466 343.461,150.415 340.868,150.925C338.79,148.713 335.833,147.328 332.558,147.328C326.271,147.328 321.173,152.426 321.173,158.711C321.173,159.604 321.272,160.474 321.468,161.307C312.007,160.831 303.618,156.301 298.004,149.413C297.026,151.095 296.462,153.05 296.462,155.135C296.462,159.084 298.472,162.57 301.528,164.609C299.661,164.553 297.907,164.04 296.372,163.186L296.368,163.331C296.368,168.846 300.294,173.447 305.502,174.492C304.547,174.752 303.54,174.892 302.502,174.892C301.768,174.892 301.055,174.819 300.36,174.687C301.811,179.21 306.013,182.501 310.995,182.594C307.099,185.646 302.192,187.467 296.856,187.467C295.938,187.467 295.032,187.414 294.142,187.31C299.181,190.538 305.161,192.423 311.592,192.423Z" style="fill:white;fill-rule:nonzero;"/>
    </g>
</svg>
