<?xml version="1.0" encoding="UTF-8" standalone="no"?>
<!DOCTYPE svg PUBLIC "-//W3C//DTD SVG 1.1//EN" "http://www.w3.org/Graphics/SVG/1.1/DTD/svg11.dtd">
<svg width="100%" height="100%" viewBox="0 0 400 400" version="1.1" xmlns="http://www.w3.org/2000/svg" xmlns:xlink="http://www.w3.org/1999/xlink" xml:space="preserve" xmlns:serif="http://www.serif.com/" style="fill-rule:evenodd;clip-rule:evenodd;stroke-linejoin:round;stroke-miterlimit:2;">
    <g transform="matrix(1.92656,0,0,1.92656,-113.892,-241.799)">
        <circle cx="162.929" cy="229.32" r="103.812" style="fill:rgb(243,112,33);fill-opacity:0.11;"/>
    </g>
    <g transform="matrix(1,0,0,1,-56.3491,-56.0009)">
        <path d="M383.841,171.838C375.96,163.528 362.821,163.162 354.498,171.063L221.987,296.732L158.783,231.839C150.778,223.626 137.653,223.446 129.433,231.452C121.22,239.45 121.047,252.589 129.045,260.802L206.537,340.363C210.598,344.535 215.995,346.638 221.406,346.638C226.54,346.638 231.674,344.742 235.694,340.944L383.067,201.182C391.383,193.294 391.735,180.155 383.841,171.838Z" style="fill:rgb(243,112,33);fill-rule:nonzero;"/>
    </g>
</svg>
