<?xml version="1.0" encoding="UTF-8" standalone="no"?>
<!DOCTYPE svg PUBLIC "-//W3C//DTD SVG 1.1//EN" "http://www.w3.org/Graphics/SVG/1.1/DTD/svg11.dtd">
<svg width="100%" height="100%" viewBox="0 0 320 260" version="1.1" xmlns="http://www.w3.org/2000/svg" xmlns:xlink="http://www.w3.org/1999/xlink" xml:space="preserve" xmlns:serif="http://www.serif.com/" style="fill-rule:evenodd;clip-rule:evenodd;stroke-linejoin:round;stroke-miterlimit:2;">
    <g transform="matrix(0.95103,0,0,0.95103,29.9934,-0.00330739)">
        <g transform="matrix(4.16667,0,0,4.16667,-1855.48,-1222.11)">
            <path d="M478.123,293.307C469.213,293.307 468.097,293.345 464.597,293.504C461.104,293.664 458.72,294.218 456.634,295.03C454.476,295.868 452.646,296.989 450.823,298.813C448.999,300.637 447.877,302.467 447.039,304.624C446.228,306.711 445.673,309.096 445.515,312.587C445.354,316.087 445.315,317.204 445.315,326.114C445.315,335.022 445.354,336.141 445.515,339.64C445.673,343.132 446.228,345.517 447.039,347.603C447.877,349.761 448.999,351.59 450.823,353.414C452.646,355.238 454.476,356.359 456.634,357.198C458.72,358.009 461.104,358.563 464.597,358.723C468.097,358.882 469.213,358.92 478.123,358.92C487.033,358.92 488.149,358.882 491.649,358.723C495.142,358.563 497.524,358.009 499.612,357.198C501.771,356.359 503.599,355.238 505.423,353.414C507.247,351.59 508.369,349.761 509.207,347.603C510.019,345.517 510.573,343.132 510.731,339.64C510.892,336.141 510.931,335.022 510.931,326.114C510.931,317.204 510.892,316.087 510.731,312.587C510.573,309.096 510.019,306.711 509.207,304.624C508.369,302.467 507.247,300.637 505.423,298.813C503.599,296.989 501.771,295.868 499.612,295.03C497.524,294.218 495.142,293.664 491.649,293.504C488.149,293.345 487.033,293.307 478.123,293.307ZM478.123,299.218C486.883,299.218 487.92,299.252 491.38,299.41C494.578,299.555 496.315,300.09 497.472,300.539C499.002,301.134 500.095,301.845 501.243,302.993C502.392,304.141 503.103,305.233 503.698,306.766C504.147,307.921 504.681,309.658 504.827,312.856C504.985,316.316 505.019,317.354 505.019,326.114C505.019,334.873 504.985,335.911 504.827,339.37C504.681,342.568 504.147,344.306 503.698,345.462C503.103,346.993 502.392,348.086 501.243,349.233C500.095,350.382 499.002,351.093 497.472,351.688C496.315,352.138 494.578,352.672 491.38,352.817C487.921,352.975 486.883,353.009 478.123,353.009C469.362,353.009 468.325,352.975 464.866,352.817C461.668,352.672 459.931,352.138 458.774,351.688C457.243,351.093 456.151,350.382 455.003,349.233C453.854,348.086 453.144,346.993 452.548,345.462C452.099,344.306 451.565,342.568 451.419,339.37C451.261,335.911 451.228,334.873 451.228,326.114C451.228,317.354 451.261,316.316 451.419,312.856C451.565,309.658 452.099,307.921 452.548,306.766C453.144,305.233 453.854,304.141 455.003,302.993C456.151,301.845 457.243,301.134 458.774,300.539C459.931,300.09 461.668,299.555 464.866,299.41C468.326,299.252 469.362,299.218 478.123,299.218Z" style="fill:white;fill-rule:nonzero;"/>
        </g>
        <g transform="matrix(4.16667,0,0,4.16667,-1855.48,-1222.11)">
            <path d="M478.123,337.049C472.084,337.049 467.187,332.152 467.187,326.113C467.187,320.073 472.084,315.178 478.123,315.178C484.162,315.178 489.058,320.073 489.058,326.113C489.058,332.152 484.162,337.049 478.123,337.049ZM478.123,309.267C468.819,309.267 461.276,316.809 461.276,326.113C461.276,335.418 468.819,342.96 478.123,342.96C487.427,342.96 494.97,335.418 494.97,326.113C494.97,316.809 487.427,309.267 478.123,309.267Z" style="fill:white;fill-rule:nonzero;"/>
        </g>
        <g transform="matrix(4.16667,0,0,4.16667,-1855.48,-1222.11)">
            <path d="M499.571,308.602C499.571,310.775 497.81,312.538 495.635,312.538C493.461,312.538 491.698,310.775 491.698,308.602C491.698,306.428 493.461,304.664 495.635,304.664C497.81,304.664 499.571,306.428 499.571,308.602Z" style="fill:white;fill-rule:nonzero;"/>
        </g>
    </g>
</svg>
