<?xml version="1.0" encoding="UTF-8" standalone="no"?>
<!DOCTYPE svg PUBLIC "-//W3C//DTD SVG 1.1//EN" "http://www.w3.org/Graphics/SVG/1.1/DTD/svg11.dtd">
<svg width="100%" height="100%" viewBox="0 0 200 200" version="1.1" xmlns="http://www.w3.org/2000/svg" xmlns:xlink="http://www.w3.org/1999/xlink" xml:space="preserve" xmlns:serif="http://www.serif.com/" style="fill-rule:evenodd;clip-rule:evenodd;stroke-linejoin:round;stroke-miterlimit:2;">
    <g transform="matrix(0.319463,0,0,0.319463,9.84027,9.84043)">
        <path d="M505.806,78.032L58.64,78.032C26.582,78.032 0.5,104.114 0.5,136.172L0.5,428.274C0.5,460.331 26.582,486.413 58.64,486.413L505.806,486.413C537.865,486.413 563.946,460.331 563.946,428.274L563.946,136.172C563.945,104.114 537.863,78.032 505.806,78.032ZM486.64,120.872L295.534,272.474C287.696,278.692 276.748,278.692 268.91,272.474L77.806,120.872L486.64,120.872ZM521.105,428.274C521.105,436.723 514.255,443.573 505.805,443.573L58.64,443.573C50.19,443.573 43.34,436.723 43.34,428.274L43.34,148.214L242.287,306.036C253.599,315.011 267.783,319.952 282.224,319.952C296.665,319.952 310.848,315.011 322.161,306.036L521.106,148.214L521.106,428.274L521.105,428.274Z" style="fill:white;fill-rule:nonzero;"/>
    </g>
</svg>
